<?xml version="1.0" ?><!DOCTYPE svg  PUBLIC '-//W3C//DTD SVG 1.1//EN'  'http://www.w3.org/Graphics/SVG/1.1/DTD/svg11.dtd'><svg enable-background="new 0 0 91 91" height="91px" id="Layer_1" version="1.1" viewBox="0 0 91 91" width="91px" xml:space="preserve" xmlns="http://www.w3.org/2000/svg" xmlns:xlink="http://www.w3.org/1999/xlink"><g><g><g><g><path d="M32.647,33.9c0.254,0.08,0.512,0.119,0.766,0.119c1.063,0,2.051-0.682,2.393-1.75c0.955-2.994,1.986-4.192,4.416-5.127      c1.295-0.498,1.941-1.951,1.443-3.246c-0.498-1.296-1.951-1.941-3.248-1.443c-4.498,1.73-6.211,4.564-7.398,8.289      C30.597,32.064,31.325,33.478,32.647,33.9z"/><path d="M19.95,56.568c1.965,5.912,13.814,8.996,25.537,8.996s23.572-3.084,25.537-8.996      c11.404-2.58,19.602-7.064,19.602-13.352c0-5.975-7.811-10.938-21.471-13.732c-2.631-9.051-10.633-15.738-20.664-16.86      c2.055-1.063,3.467-3.205,3.467-5.674c0-3.522-2.865-6.389-6.389-6.389c-3.521,0-6.389,2.866-6.389,6.389      c0,2.456,1.396,4.59,3.436,5.658c-10.092,1.077-18.15,7.781-20.795,16.868c-8.508,1.738-21.475,5.706-21.475,13.74      C0.347,49.504,8.544,53.988,19.95,56.568z M45.487,60.539c-7.029,0-12.301-1.055-15.785-2.311      c5.07,0.617,10.434,0.932,15.785,0.932c5.35,0,10.713-0.314,15.785-0.932C57.788,59.484,52.515,60.539,45.487,60.539z       M45.569,5.587c0.752,0,1.363,0.611,1.363,1.363c0,0.751-0.611,1.361-1.363,1.361s-1.363-0.61-1.363-1.361      C44.206,6.199,44.817,5.587,45.569,5.587z M42.974,17.63v0.428c0,1.388,1.125,2.513,2.514,2.513      c1.387,0,2.512-1.125,2.512-2.513V17.63c9.881,1.101,17.059,8.627,17.059,18.386c0,1.419-4.09,4.102-19.57,4.102      c-15.482,0-19.572-2.683-19.572-4.102C25.915,26.257,33.093,18.731,42.974,17.63z M20.921,34.822      c-0.02,0.395-0.031,0.793-0.031,1.194c0,8.183,14.039,9.128,24.598,9.128s24.596-0.945,24.596-9.128      c0-0.401-0.01-0.8-0.029-1.194c10.211,2.363,15.547,5.885,15.547,8.395c0,4.453-15.627,10.918-40.113,10.918      c-24.488,0-40.115-6.465-40.115-10.918C5.372,40.721,10.71,37.184,20.921,34.822z"/><path d="M36.054,69.916c0-1.389-1.125-2.514-2.514-2.514c-1.387,0-2.512,1.125-2.512,2.514v6.752      c0,1.387,1.125,2.512,2.512,2.512c1.389,0,2.514-1.125,2.514-2.512V69.916z"/><path d="M33.54,81.029c-1.387,0-2.512,1.125-2.512,2.514v4.295c0,1.389,1.125,2.514,2.512,2.514      c1.389,0,2.514-1.125,2.514-2.514v-4.295C36.054,82.154,34.929,81.029,33.54,81.029z"/><path d="M58.142,77.545c-1.387,0-2.512,1.125-2.512,2.514v7.779c0,1.389,1.125,2.514,2.512,2.514      c1.389,0,2.514-1.125,2.514-2.514v-7.779C60.655,78.67,59.53,77.545,58.142,77.545z"/><path d="M60.655,69.916c0-1.389-1.125-2.514-2.514-2.514c-1.387,0-2.512,1.125-2.512,2.514v3.266      c0,1.389,1.125,2.514,2.512,2.514c1.389,0,2.514-1.125,2.514-2.514V69.916z"/><path d="M48.479,69.857c0-1.387-1.125-2.512-2.512-2.512c-1.389,0-2.514,1.125-2.514,2.512v2.814      c0,1.389,1.125,2.514,2.514,2.514c1.387,0,2.512-1.125,2.512-2.514V69.857z"/><path d="M48.479,79.141c0-1.387-1.125-2.512-2.512-2.512c-1.389,0-2.514,1.125-2.514,2.512v2.168      c0,1.387,1.125,2.512,2.514,2.512c1.387,0,2.512-1.125,2.512-2.512V79.141z"/><path d="M45.968,85.326c-1.389,0-2.514,1.125-2.514,2.512v0.344c0,1.387,1.125,2.512,2.514,2.512      c1.387,0,2.512-1.125,2.512-2.512v-0.344C48.479,86.451,47.354,85.326,45.968,85.326z"/><path d="M66.313,48.984c0.18,0,0.361-0.02,0.543-0.059l0.055-0.012c1.359-0.271,2.242-1.596,1.971-2.958      c-0.273-1.361-1.59-2.246-2.957-1.972l-0.15,0.031c-1.355,0.299-2.211,1.642-1.912,2.996      C64.122,48.186,65.161,48.984,66.313,48.984z"/><path d="M45.765,52.174h0.139c1.389,0,2.479-1.125,2.479-2.512c0-1.389-1.158-2.514-2.547-2.514c-0.012,0-0.023,0-0.035,0      c-1.371,0-2.492,1.102-2.512,2.479C43.269,51.014,44.378,52.154,45.765,52.174z"/><path d="M35.128,51.488l0.096,0.01c0.096,0.012,0.193,0.018,0.287,0.018c1.26,0,2.348-0.945,2.494-2.229      c0.158-1.377-0.832-2.623-2.211-2.781l-0.111-0.012c-1.373-0.158-2.621,0.84-2.775,2.219      C32.755,50.092,33.749,51.334,35.128,51.488z"/><path d="M24.64,49.854l0.08,0.016c0.166,0.033,0.332,0.051,0.496,0.051c1.172,0,2.221-0.826,2.461-2.021      c0.271-1.361-0.611-2.686-1.971-2.959l-0.123-0.023c-1.363-0.258-2.68,0.635-2.939,1.999      C22.382,48.277,23.276,49.594,24.64,49.854z"/><path d="M56.151,51.256c0.152,0,0.307-0.014,0.463-0.043l0.102-0.02c1.365-0.252,2.266-1.564,2.012-2.928      c-0.254-1.365-1.564-2.268-2.93-2.012l-0.102,0.02c-1.365,0.252-2.266,1.564-2.012,2.928      C53.909,50.41,54.964,51.256,56.151,51.256z"/></g></g></g></g></svg>